<?xml version="1.0" encoding="UTF-8"?>
<svg width="191px" height="268px" viewBox="0 0 191 268" version="1.1" xmlns="http://www.w3.org/2000/svg" xmlns:xlink="http://www.w3.org/1999/xlink">
    <title>surfrider</title>
    <desc>Created with Sketch.</desc>
    <g id="Page-1" stroke="none" stroke-width="1" fill="none" fill-rule="evenodd">
        <g id="surfrider" fill="#FFFFFF">
            <path d="M66.5,189 C65,189.4 63.5,189.9 62,190.3 L114.3,190.3 C139.3,181.5 163,171.7 183.8,160.8 C186,159.7 188.1,158.5 190.3,157.4 L190.3,136.9 C181.2,142.4 171.7,147.7 162,152.8 C134.3,167.2 101,179.2 66.5,189" id="Path"></path>
            <path d="M117.6,0.5 L77.7,0.5 C77.6,0.6 77.4,0.7 77.3,0.7 C51.9,16 25.7,37.1 0.4,60.3 L0.4,81.9 C23.7,59.3 48.7,38.2 72.7,23.7 C87.7,14.6 102.9,6.7 117.6,0.5" id="Path"></path>
            <path d="M65.8,170 C43.9,176.3 21.5,181.4 0.4,185.6 C0.5,186.9 1,188.1 1.9,188.9 C2.8,189.8 4,190.4 5.4,190.4 L51.5,190.4 C56.3,189.1 61,187.8 65.8,186.5 C100.2,176.7 133.4,164.7 160.7,150.4 C170.9,145.1 180.8,139.5 190.3,133.7 L190.3,109.8 C175.4,121.5 157.8,132.5 138.9,142.4 C117.7,153.3 92.2,162.4 65.8,170" id="Path"></path>
            <path d="M114.4,129.2 C128.2,122 140.9,114 151.4,105.5 C161.9,97 170.2,88 175,78.8 C178.3,72.7 180,66.5 180,60.4 C180,54.8 178.6,49.3 175.4,43.6 C171.8,37.2 167.1,32.8 161.5,29.9 C155.9,27 149.3,25.7 142.1,25.7 C132,25.7 120.5,28.3 108.4,32.8 C96.4,37.3 83.7,43.8 71,51.4 C47.2,65.8 21.7,90 0.4,112.9 L0.4,126.4 C2.2,124.5 4,122.6 5.9,120.6 C24.4,101.6 48.4,79.2 70.5,66 C81,59.7 91.6,54.3 101.6,50.5 C111.6,46.7 121,44.4 129.2,44.4 C134.3,44.4 138.9,45.3 142.9,47.3 C146.9,49.3 150.2,52.4 152.6,56.6 C154.6,60.2 155.6,64 155.6,67.8 C155.6,72.7 154,77.5 151.2,82.3 C148.4,87.1 144.5,91.8 139.6,96.4 C129.9,105.6 116.5,114.4 101.7,122.2 C90.4,128.2 76.8,133.4 62.9,137.9 C49,142.3 34.6,146 21.7,149 C14,150.8 6.8,152.3 0.4,153.5 L0.4,162.5 C19.8,159.2 42.6,154.5 64.4,148.3 C82.5,143 100,136.7 114.4,129.2" id="Path"></path>
            <path d="M43.4,0.5 C29,11.2 14.6,23 0.4,35.5 L0.4,56.5 C24.1,35 48.6,15.3 72.4,0.5 L43.4,0.5 Z" id="Path"></path>
            <path d="M5.4,0.5 C4,0.5 2.8,1.1 1.9,2 C1,2.9 0.4,4.1 0.4,5.5 L0.4,31.9 C13.1,20.8 26,10.3 38.8,0.6 L5.4,0.6 L5.4,0.5 Z" id="Path"></path>
            <path d="M122.5,190.3 L185.3,190.3 C186.7,190.3 187.9,189.7 188.8,188.8 C189.7,187.9 190.3,186.7 190.3,185.3 L190.3,160.5 C188.6,161.4 186.8,162.3 185.1,163.3 C166.1,173.2 144.9,182.2 122.5,190.3" id="Path"></path>
            <path d="M188.8,1.9 C187.9,1 186.7,0.4 185.3,0.4 L125,0.4 C108.5,6.9 91.3,15.7 74.2,26 C49.8,40.8 24.2,62.5 0.4,85.7 L0.4,108.7 C21.4,86.3 46.1,63.1 69.6,48.9 C82.3,41.2 95.2,34.7 107.5,30.1 C119.8,25.5 131.6,22.8 142.2,22.8 C149.8,22.8 156.8,24.2 162.9,27.3 C169,30.4 174.1,35.3 177.9,42.1 C181.3,48.1 182.9,54.2 182.9,60.2 C182.9,66.9 181,73.5 177.6,79.9 C174.2,86.3 169.2,92.6 163.2,98.6 C151.1,110.6 134.3,121.8 115.8,131.5 C101.2,139.1 83.5,145.5 65.3,150.7 C47.1,155.9 28.2,160 11.1,163.2 C7.5,163.9 3.9,164.5 0.5,165.1 L0.5,182.5 C21.4,178.4 43.6,173.3 65.2,167.1 C91.5,159.6 116.8,150.5 137.7,139.6 C157.3,129.4 175.4,118 190.4,105.9 L190.4,5.4 C190.2,4.1 189.7,2.8 188.8,1.9" id="Path"></path>
            <polygon id="Path" points="0.3 266.9 1.4 266.9 1.4 260.8 7.5 260.8 7.5 259.9 1.4 259.9 1.4 254.3 8.5 254.3 8.5 253.4 0.3 253.4"></polygon>
            <path d="M17.5,265.1 C16.8,265.8 15.9,266.1 14.9,266.1 C13.9,266.1 13,265.7 12.3,265.1 C11.3,264.1 11.3,263.1 11.3,260.2 C11.3,257.3 11.4,256.3 12.3,255.3 C13,254.6 13.9,254.3 14.9,254.3 C15.9,254.3 16.8,254.7 17.5,255.3 C18.5,256.3 18.5,257.3 18.5,260.2 C18.6,263.1 18.5,264.1 17.5,265.1 M15,253.3 C13.7,253.3 12.5,253.8 11.6,254.7 C10.4,255.9 10.3,257.1 10.3,260.2 C10.3,263.3 10.3,264.5 11.6,265.7 C12.5,266.6 13.7,267.1 15,267.1 C16.3,267.1 17.5,266.6 18.4,265.7 C19.6,264.5 19.7,263.3 19.7,260.2 C19.7,257.1 19.7,255.9 18.4,254.7 C17.5,253.8 16.2,253.3 15,253.3" id="Shape" fill-rule="nonzero"></path>
            <path d="M31.3,262.4 C31.3,264.6 29.9,266.1 27.7,266.1 C25.5,266.1 24.1,264.6 24.1,262.4 L24.1,253.4 L23.1,253.4 L23.1,262.5 C23.1,265.1 25,267 27.7,267 C30.4,267 32.3,265.1 32.3,262.5 L32.3,253.4 L31.3,253.4 L31.3,262.4 Z" id="Path"></path>
            <polygon id="Path" points="45.1 265.1 37.3 253.4 36.3 253.4 36.3 266.9 37.3 266.9 37.3 255.2 45.1 266.9 46.1 266.9 46.1 253.4 45.1 253.4"></polygon>
            <path d="M57.5,265 C56.7,265.8 55.7,266 54.6,266 L51.3,266 L51.3,254.3 L54.6,254.3 C55.7,254.3 56.7,254.5 57.5,255.3 C58.6,256.4 58.5,258.4 58.5,259.9 C58.5,261.5 58.6,263.9 57.5,265 M58.2,254.6 C57.4,253.8 56.2,253.4 54.8,253.4 L50.3,253.4 L50.3,266.9 L54.8,266.9 C56.2,266.9 57.4,266.5 58.2,265.7 C59.6,264.3 59.5,261.8 59.5,260 C59.5,258.2 59.6,256 58.2,254.6" id="Shape" fill-rule="nonzero"></path>
            <path d="M63.7,262.7 L66.5,254.7 L69.3,262.7 L63.7,262.7 Z M66.1,253.4 L61.1,266.9 L62.2,266.9 L63.4,263.6 L69.7,263.6 L70.9,266.9 L72,266.9 L67,253.4 L66.1,253.4 Z" id="Shape" fill-rule="nonzero"></path>
            <polygon id="Path" points="71.7 254.3 75.7 254.3 75.7 266.9 76.7 266.9 76.7 254.3 80.8 254.3 80.8 253.4 71.7 253.4"></polygon>
            <rect id="Rectangle" x="83.4" y="253.4" width="1" height="13.5"></rect>
            <path d="M95.3,265.1 C94.6,265.8 93.7,266.1 92.7,266.1 C91.7,266.1 90.8,265.7 90.1,265.1 C89.1,264.1 89.1,263.1 89.1,260.2 C89.1,257.3 89.2,256.3 90.1,255.3 C90.8,254.6 91.7,254.3 92.7,254.3 C93.7,254.3 94.6,254.7 95.3,255.3 C96.3,256.3 96.3,257.3 96.3,260.2 C96.3,263.1 96.2,264.1 95.3,265.1 M92.7,253.3 C91.4,253.3 90.2,253.8 89.3,254.7 C88.1,255.9 88,257.1 88,260.2 C88,263.3 88,264.5 89.3,265.7 C90.2,266.6 91.4,267.1 92.7,267.1 C94,267.1 95.2,266.6 96.1,265.7 C97.3,264.5 97.4,263.3 97.4,260.2 C97.4,257.1 97.4,255.9 96.1,254.7 C95.2,253.8 94,253.3 92.7,253.3" id="Shape" fill-rule="nonzero"></path>
            <polygon id="Path" points="109.8 265.1 102 253.4 101 253.4 101 266.9 102 266.9 102 255.2 109.8 266.9 110.8 266.9 110.8 253.4 109.8 253.4"></polygon>
            <path d="M19,235.4 C19.3,234 19.5,232.4 19.5,230.8 C19.5,229.4 19.4,228.1 19.3,227 C19.2,225.9 18.9,224.9 18.4,224 C18,223.1 17.4,222.4 16.6,221.7 C15.8,221.1 14.8,220.5 13.6,220 L9.3,218.3 C8.6,218 8,217.7 7.6,217.4 C7.2,217.1 6.9,216.8 6.6,216.4 C6.4,216 6.2,215.6 6.2,215 C6.1,214.5 6.1,213.8 6.1,213 C6.1,212.3 6.2,211.7 6.3,211.1 C6.4,210.5 6.6,210 6.9,209.5 C7.2,209 7.6,208.7 8.1,208.4 C8.6,208.1 9.2,208 10,208 C11.4,208 12.5,208.5 13.1,209.4 C13.7,210.3 14,211.5 14,212.8 L14,214.1 L19.7,214.1 L19.7,211.3 C19.7,210.2 19.5,209.1 19,208.1 C18.6,207 17.9,206.1 17.1,205.2 C16.3,204.4 15.3,203.7 14.1,203.1 C12.9,202.6 11.7,202.3 10.2,202.3 C8.6,202.3 7.2,202.6 5.9,203.2 C4.7,203.8 3.7,204.5 2.9,205.5 C2.1,206.5 1.5,207.6 1.1,208.9 C0.7,210.2 0.5,211.6 0.5,213.1 C0.5,215.6 0.9,217.6 1.7,219.3 C2.5,220.9 4.2,222.3 6.6,223.3 L10.6,225 C11.3,225.3 11.9,225.6 12.3,225.8 C12.7,226.1 13.1,226.4 13.3,226.8 C13.5,227.2 13.7,227.7 13.8,228.4 C13.9,229.1 13.9,229.9 13.9,230.9 C13.9,231.8 13.9,232.6 13.8,233.3 C13.7,234 13.6,234.7 13.3,235.2 C13,235.7 12.6,236.1 12.1,236.4 C11.6,236.7 10.8,236.8 9.9,236.8 C8.5,236.8 7.4,236.4 6.8,235.6 C6.2,234.8 5.9,233.8 5.9,232.8 L5.9,231 L0.3,231 L0.3,233.1 C0.3,234.4 0.5,235.7 1,236.8 C1.5,237.9 2.2,238.9 3,239.8 C3.8,240.6 4.9,241.3 6,241.8 C7.2,242.3 8.5,242.5 9.8,242.5 C11.6,242.5 13.1,242.2 14.4,241.6 C15.7,241 16.7,240.2 17.4,239.2 C18.1,238.1 18.7,236.9 19,235.4" id="Path"></path>
            <path d="M41.2,236.8 C41.7,235.7 41.9,234.5 41.9,233.2 L41.9,202.6 L36.3,202.6 L36.3,232.6 C36.3,234 36,235 35.3,235.7 C34.6,236.4 33.8,236.7 32.8,236.7 C31.8,236.7 31,236.4 30.3,235.7 C29.6,235 29.3,234 29.3,232.6 L29.3,202.6 L23.7,202.6 L23.7,233.2 C23.7,234.5 23.9,235.7 24.4,236.8 C24.9,237.9 25.5,238.9 26.4,239.7 C27.2,240.5 28.2,241.2 29.3,241.7 C30.4,242.2 31.6,242.4 32.8,242.4 C34.1,242.4 35.2,242.2 36.3,241.7 C37.4,241.2 38.4,240.6 39.2,239.7 C40.1,238.9 40.7,237.9 41.2,236.8" id="Path"></path>
            <path d="M60.4,216.7 C60.3,217.5 60.1,218.1 59.8,218.6 C59.5,219.1 59,219.5 58.4,219.8 C57.8,220.1 57,220.2 56,220.2 L52.8,220.2 L52.8,207.9 L55.7,207.9 C56.7,207.9 57.6,208 58.2,208.3 C58.8,208.6 59.3,209 59.7,209.5 C60.1,210 60.3,210.7 60.4,211.4 C60.5,212.2 60.6,213 60.6,214 C60.6,215.1 60.5,216 60.4,216.7 Z M61.4,224 C63.2,223 64.5,221.7 65.2,220 C65.9,218.4 66.3,216.4 66.3,214.1 C66.3,206.4 63,202.5 56.3,202.5 L47.2,202.5 L47.2,241.9 L52.8,241.9 L52.8,225.1 L56.2,225.1 L61.5,241.9 L67.5,241.9 L61.4,224 Z" id="Shape" fill-rule="nonzero"></path>
            <polygon id="Path" points="87.6 207.9 87.6 202.6 70.7 202.6 70.7 242.1 76.4 242.1 76.4 225.2 86.1 225.2 86.1 219.9 76.4 219.9 76.4 207.9"></polygon>
            <path d="M104.4,216.7 C104.3,217.5 104.1,218.1 103.8,218.6 C103.5,219.1 103,219.5 102.4,219.8 C101.8,220.1 101,220.2 100,220.2 L96.8,220.2 L96.8,207.9 L99.7,207.9 C100.7,207.9 101.6,208 102.2,208.3 C102.8,208.6 103.3,209 103.7,209.5 C104.1,210 104.3,210.7 104.4,211.4 C104.5,212.2 104.6,213 104.6,214 C104.6,215.1 104.5,216 104.4,216.7 M109.2,220.1 C109.9,218.5 110.3,216.5 110.3,214.2 C110.3,206.5 107,202.6 100.3,202.6 L91.2,202.6 L91.2,242 L96.8,242 L96.8,225.2 L100.2,225.2 L105.5,242 L111.5,242 L105.4,224 C107.2,223.1 108.4,221.7 109.2,220.1" id="Shape" fill-rule="nonzero"></path>
            <rect id="Rectangle" x="114.9" y="202.6" width="5.7" height="39.4"></rect>
            <path d="M138.6,231.8 C138.6,233.5 138.3,234.7 137.6,235.5 C136.9,236.3 135.8,236.7 134.2,236.7 L131.6,236.7 L131.6,207.9 L134.2,207.9 C135.9,207.9 137,208.3 137.6,209.2 C138.2,210.1 138.5,211.3 138.5,212.8 L138.5,231.8 L138.6,231.8 Z M134.3,202.6 L126,202.6 L126,242 L133.9,242 C137.3,242 139.8,241.1 141.6,239.4 C143.4,237.6 144.3,234.9 144.3,231.2 L144.3,212.8 C144.3,209.6 143.4,207.1 141.8,205.3 C140,203.5 137.5,202.6 134.3,202.6 Z" id="Shape" fill-rule="nonzero"></path>
            <polygon id="Path" points="148.8 242.1 165.7 242.1 165.7 236.4 154.5 236.4 154.5 224.8 164.2 224.8 164.2 219.5 154.5 219.5 154.5 207.9 165.7 207.9 165.7 202.6 148.8 202.6"></polygon>
            <path d="M175.6,207.9 L178.5,207.9 C179.5,207.9 180.4,208 181,208.3 C181.6,208.6 182.1,209 182.5,209.5 C182.9,210 183.1,210.7 183.2,211.4 C183.3,212.2 183.4,213 183.4,214 C183.4,215 183.3,215.9 183.2,216.6 C183.1,217.4 182.9,218 182.6,218.5 C182.3,219 181.8,219.4 181.2,219.7 C180.6,220 179.8,220.1 178.8,220.1 L175.6,220.1 L175.6,207.9 Z M175.6,225.2 L179,225.2 L184.3,242 L190.3,242 L184.2,224 C186,223 187.3,221.7 188,220 C188.7,218.4 189.1,216.4 189.1,214.1 C189.1,206.4 185.8,202.5 179.1,202.5 L170,202.5 L170,241.9 L175.7,241.9 L175.7,225.2 L175.6,225.2 Z" id="Shape" fill-rule="nonzero"></path>
            <polygon id="Path" points="119.9 253.3 128.5 253.3 128.5 255.2 122 255.2 122 259.1 127.6 259.1 127.6 260.9 122 260.9 122 264.8 128.5 264.8 128.5 266.7 119.9 266.7"></polygon>
            <path d="M131.2,253.3 L133.2,253.3 L133.2,262 C133.2,262.9 133.5,263.6 134,264.1 C134.5,264.6 135.2,264.9 135.9,264.9 C136.7,264.9 137.3,264.6 137.9,264.1 C138.4,263.6 138.7,262.9 138.7,262 L138.7,253.3 L140.7,253.3 L140.7,262.2 C140.7,263.6 140.2,264.7 139.3,265.6 C138.4,266.5 137.3,266.9 135.9,266.9 C134.6,266.9 133.4,266.5 132.5,265.6 C131.6,264.8 131.1,263.6 131.1,262.2 L131.1,253.3 L131.2,253.3 Z" id="Path"></path>
            <path d="M146.4,259.2 L149.5,259.2 C150.3,259.2 150.8,259 151.2,258.5 C151.6,258.1 151.8,257.6 151.8,257 C151.8,256.3 151.6,255.8 151.1,255.5 C150.8,255.2 150.3,255.1 149.6,255.1 L146.4,255.1 L146.4,259.2 Z M144.3,253.3 L149.6,253.3 C150.7,253.3 151.6,253.6 152.3,254.2 C153.2,254.9 153.6,255.8 153.6,257.1 C153.6,258.9 152.7,260.2 151,260.8 L154.1,266.8 L151.7,266.8 L149,261 L146.4,261 L146.4,266.8 L144.4,266.8 L144.4,253.3 L144.3,253.3 Z" id="Shape" fill-rule="nonzero"></path>
            <path d="M158.4,260 C158.4,261.3 158.4,262.2 158.5,262.7 C158.6,263.2 158.8,263.5 159,263.8 C159.2,264.1 159.5,264.3 159.8,264.5 C160.1,264.7 160.6,264.8 161,264.8 C161.5,264.8 161.9,264.7 162.3,264.5 C162.6,264.3 162.9,264.1 163.1,263.8 C163.4,263.5 163.5,263.1 163.6,262.7 C163.7,262.2 163.7,261.3 163.7,260 C163.7,258.7 163.7,257.8 163.6,257.3 C163.5,256.8 163.3,256.5 163.1,256.2 C162.9,255.9 162.6,255.7 162.3,255.5 C161.9,255.3 161.5,255.2 161,255.2 C160.5,255.2 160.1,255.3 159.8,255.5 C159.4,255.7 159.2,255.9 159,256.2 C158.7,256.5 158.6,256.9 158.5,257.3 C158.5,257.8 158.4,258.7 158.4,260 M156.4,260 C156.4,258.4 156.4,257.4 156.5,256.9 C156.6,256.4 156.7,255.9 157,255.6 C157.3,255 157.8,254.4 158.6,253.9 C159.3,253.4 160.2,253.2 161.2,253.1 C162.3,253.1 163.2,253.4 163.9,253.9 C164.6,254.4 165.1,254.9 165.4,255.6 C165.6,255.9 165.8,256.4 165.9,256.9 C166,257.4 166,258.5 166,260 C166,261.5 166,262.6 165.9,263.1 C165.8,263.6 165.7,264.1 165.4,264.4 C165.1,265 164.6,265.6 163.9,266 C163.2,266.5 162.3,266.8 161.2,266.8 C160.1,266.8 159.3,266.5 158.6,266 C157.9,265.5 157.4,265 157,264.4 C156.9,264.2 156.8,264 156.7,263.8 C156.6,263.6 156.6,263.4 156.5,263.1 C156.4,262.6 156.4,261.6 156.4,260" id="Shape" fill-rule="nonzero"></path>
            <path d="M171.4,259.6 L174.4,259.6 C175.2,259.6 175.7,259.4 176.1,258.9 C176.5,258.5 176.6,258 176.6,257.4 C176.6,257 176.5,256.6 176.4,256.3 C176.2,256 176,255.8 175.8,255.6 C175.4,255.3 174.9,255.2 174.3,255.2 L171.4,255.2 L171.4,259.6 Z M169.4,253.3 L174.3,253.3 C174.8,253.3 175.3,253.3 175.8,253.4 C176.3,253.5 176.8,253.8 177.3,254.2 C177.7,254.5 178.1,254.9 178.3,255.5 C178.6,256 178.7,256.7 178.7,257.4 C178.7,258.4 178.3,259.3 177.6,260.1 C176.9,261 175.8,261.4 174.4,261.4 L171.3,261.4 L171.3,266.7 L169.3,266.7 L169.3,253.3 L169.4,253.3 Z" id="Shape" fill-rule="nonzero"></path>
            <polygon id="Path" points="181.5 253.3 190.1 253.3 190.1 255.2 183.6 255.2 183.6 259.1 189.2 259.1 189.2 260.9 183.6 260.9 183.6 264.8 190.1 264.8 190.1 266.7 181.5 266.7"></polygon>
        </g>
    </g>
</svg>
