<svg width="16" height="16" viewBox="0 0 16 16" fill="none" xmlns="http://www.w3.org/2000/svg">
<path d="M15.8519 0.863211C16.0493 0.66574 16.0493 0.345575 15.8519 0.148104C15.6544 -0.0493678 15.3342 -0.049368 15.1368 0.148104L8 7.28486L0.863239 0.148104C0.665768 -0.0493679 0.345603 -0.0493678 0.148131 0.148104C-0.0493399 0.345575 -0.0493401 0.66574 0.148131 0.863211L7.28489 7.99997L0.148104 15.1368C-0.0493678 15.3342 -0.0493678 15.6544 0.148104 15.8519C0.345575 16.0493 0.66574 16.0493 0.863211 15.8519L8 8.71508L15.1368 15.8519C15.3343 16.0493 15.6544 16.0493 15.8519 15.8519C16.0494 15.6544 16.0494 15.3342 15.8519 15.1368L8.71511 7.99997L15.8519 0.863211Z" fill="white"/>
</svg>
