<?xml version="1.0" encoding="utf-8"?>
<!-- Generator: Adobe Illustrator 22.1.0, SVG Export Plug-In . SVG Version: 6.00 Build 0)  -->
<svg version="1.1" id="Calque_1" xmlns="http://www.w3.org/2000/svg" xmlns:xlink="http://www.w3.org/1999/xlink" x="0px" y="0px"
	 viewBox="0 0 207.9 300.7" style="enable-background:new 0 0 207.9 300.7;" xml:space="preserve">
<style type="text/css">
	.st0{fill:#FFFFFF;}
</style>
<g>
	<path class="st0" d="M77.5,200c-1.5,0.4-3,0.9-4.5,1.3h52.3c25-8.8,48.7-18.6,69.5-29.5c2.2-1.1,4.3-2.3,6.5-3.4v-20.5
		c-9.1,5.5-18.6,10.8-28.3,15.9C145.3,178.2,112,190.2,77.5,200"/>
	<path class="st0" d="M128.6,11.5H88.7c-0.1,0.1-0.3,0.2-0.4,0.2C62.9,27,36.7,48.1,11.4,71.3v21.6c23.3-22.6,48.3-43.7,72.3-58.2
		C98.7,25.6,113.9,17.7,128.6,11.5"/>
	<path class="st0" d="M76.8,181c-21.9,6.3-44.3,11.4-65.4,15.6c0.1,1.3,0.6,2.5,1.5,3.3c0.9,0.9,2.1,1.5,3.5,1.5h46.1
		c4.8-1.3,9.5-2.6,14.3-3.9c34.4-9.8,67.6-21.8,94.9-36.1c10.2-5.3,20.1-10.9,29.6-16.7v-23.9c-14.9,11.7-32.5,22.7-51.4,32.6
		C128.7,164.3,103.2,173.4,76.8,181"/>
	<path class="st0" d="M125.4,140.2c13.8-7.2,26.5-15.2,37-23.7c10.5-8.5,18.8-17.5,23.6-26.7c3.3-6.1,5-12.3,5-18.4
		c0-5.6-1.4-11.1-4.6-16.8c-3.6-6.4-8.3-10.8-13.9-13.7c-5.6-2.9-12.2-4.2-19.4-4.2c-10.1,0-21.6,2.6-33.7,7.1
		C107.4,48.3,94.7,54.8,82,62.4C58.2,76.8,32.7,101,11.4,123.9v13.5c1.8-1.9,3.6-3.8,5.5-5.8C35.4,112.6,59.4,90.2,81.5,77
		c10.5-6.3,21.1-11.7,31.1-15.5c10-3.8,19.4-6.1,27.6-6.1c5.1,0,9.7,0.9,13.7,2.9c4,2,7.3,5.1,9.7,9.3c2,3.6,3,7.4,3,11.2
		c0,4.9-1.6,9.7-4.4,14.5c-2.8,4.8-6.7,9.5-11.6,14.1c-9.7,9.2-23.1,18-37.9,25.8c-11.3,6-24.9,11.2-38.8,15.7
		C60,153.3,45.6,157,32.7,160c-7.7,1.8-14.9,3.3-21.3,4.5v9c19.4-3.3,42.2-8,64-14.2C93.5,154,111,147.7,125.4,140.2"/>
	<path class="st0" d="M54.4,11.5C40,22.2,25.6,34,11.4,46.5v21c23.7-21.5,48.2-41.2,72-56H54.4z"/>
	<path class="st0" d="M16.4,11.5c-1.4,0-2.6,0.6-3.5,1.5c-0.9,0.9-1.5,2.1-1.5,3.5v26.4c12.7-11.1,25.6-21.6,38.4-31.3H16.4z"/>
	<path class="st0" d="M133.5,201.3h62.8c1.4,0,2.6-0.6,3.5-1.5c0.9-0.9,1.5-2.1,1.5-3.5v-24.8c-1.7,0.9-3.5,1.8-5.2,2.8
		C177.1,184.2,155.9,193.2,133.5,201.3"/>
	<path class="st0" d="M199.8,12.9c-0.9-0.9-2.1-1.5-3.5-1.5H136c-16.5,6.5-33.7,15.3-50.8,25.6c-24.4,14.8-50,36.5-73.8,59.7v23
		c21-22.4,45.7-45.6,69.2-59.8c12.7-7.7,25.6-14.2,37.9-18.8c12.3-4.6,24.1-7.3,34.7-7.3c7.6,0,14.6,1.4,20.7,4.5
		c6.1,3.1,11.2,8,15,14.8c3.4,6,5,12.1,5,18.1c0,6.7-1.9,13.3-5.3,19.7c-3.4,6.4-8.4,12.7-14.4,18.7c-12.1,12-28.9,23.2-47.4,32.9
		c-14.6,7.6-32.3,14-50.5,19.2c-18.2,5.2-37.1,9.3-54.2,12.5c-3.6,0.7-7.2,1.3-10.6,1.9v17.4c20.9-4.1,43.1-9.2,64.7-15.4
		c26.3-7.5,51.6-16.6,72.5-27.5c19.6-10.2,37.7-21.6,52.7-33.7V16.4C201.2,15.1,200.7,13.8,199.8,12.9"/>
	<polygon class="st0" points="11.3,277.9 12.4,277.9 12.4,271.8 18.5,271.8 18.5,270.9 12.4,270.9 12.4,265.3 19.5,265.3 
		19.5,264.4 11.3,264.4 	"/>
	<path class="st0" d="M28.5,276.1c-0.7,0.7-1.6,1-2.6,1c-1,0-1.9-0.4-2.6-1c-1-1-1-2-1-4.9c0-2.9,0.1-3.9,1-4.9c0.7-0.7,1.6-1,2.6-1
		c1,0,1.9,0.4,2.6,1c1,1,1,2,1,4.9C29.6,274.1,29.5,275.1,28.5,276.1 M26,264.3c-1.3,0-2.5,0.5-3.4,1.4c-1.2,1.2-1.3,2.4-1.3,5.5
		c0,3.1,0,4.3,1.3,5.5c0.9,0.9,2.1,1.4,3.4,1.4c1.3,0,2.5-0.5,3.4-1.4c1.2-1.2,1.3-2.4,1.3-5.5c0-3.1,0-4.3-1.3-5.5
		C28.5,264.8,27.2,264.3,26,264.3"/>
	<path class="st0" d="M42.3,273.4c0,2.2-1.4,3.7-3.6,3.7c-2.2,0-3.6-1.5-3.6-3.7v-9h-1v9.1c0,2.6,1.9,4.5,4.6,4.5
		c2.7,0,4.6-1.9,4.6-4.5v-9.1h-1V273.4z"/>
	<polygon class="st0" points="56.1,276.1 48.3,264.4 47.3,264.4 47.3,277.9 48.3,277.9 48.3,266.2 56.1,277.9 57.1,277.9 
		57.1,264.4 56.1,264.4 	"/>
	<path class="st0" d="M68.5,276c-0.8,0.8-1.8,1-2.9,1h-3.3v-11.7h3.3c1.1,0,2.1,0.2,2.9,1c1.1,1.1,1,3.1,1,4.6
		C69.5,272.5,69.6,274.9,68.5,276 M69.2,265.6c-0.8-0.8-2-1.2-3.4-1.2h-4.5v13.5h4.5c1.4,0,2.6-0.4,3.4-1.2c1.4-1.4,1.3-3.9,1.3-5.7
		C70.5,269.2,70.6,267,69.2,265.6"/>
	<path class="st0" d="M74.7,273.7l2.8-8l2.8,8H74.7z M77.1,264.4l-5,13.5h1.1l1.2-3.3h6.3l1.2,3.3H83l-5-13.5H77.1z"/>
	<polygon class="st0" points="82.7,265.3 86.7,265.3 86.7,277.9 87.7,277.9 87.7,265.3 91.8,265.3 91.8,264.4 82.7,264.4 	"/>
	<rect x="94.4" y="264.4" class="st0" width="1" height="13.5"/>
	<path class="st0" d="M106.3,276.1c-0.7,0.7-1.6,1-2.6,1c-1,0-1.9-0.4-2.6-1c-1-1-1-2-1-4.9c0-2.9,0.1-3.9,1-4.9
		c0.7-0.7,1.6-1,2.6-1c1,0,1.9,0.4,2.6,1c1,1,1,2,1,4.9C107.3,274.1,107.2,275.1,106.3,276.1 M103.7,264.3c-1.3,0-2.5,0.5-3.4,1.4
		c-1.2,1.2-1.3,2.4-1.3,5.5c0,3.1,0,4.3,1.3,5.5c0.9,0.9,2.1,1.4,3.4,1.4s2.5-0.5,3.4-1.4c1.2-1.2,1.3-2.4,1.3-5.5
		c0-3.1,0-4.3-1.3-5.5C106.2,264.8,105,264.3,103.7,264.3"/>
	<polygon class="st0" points="120.8,276.1 113,264.4 112,264.4 112,277.9 113,277.9 113,266.2 120.8,277.9 121.8,277.9 121.8,264.4 
		120.8,264.4 	"/>
	<path class="st0" d="M30,246.4c0.3-1.4,0.5-3,0.5-4.6c0-1.4-0.1-2.7-0.2-3.8c-0.1-1.1-0.4-2.1-0.9-3c-0.4-0.9-1-1.6-1.8-2.3
		c-0.8-0.6-1.8-1.2-3-1.7l-4.3-1.7c-0.7-0.3-1.3-0.6-1.7-0.9c-0.4-0.3-0.7-0.6-1-1c-0.2-0.4-0.4-0.8-0.4-1.4c-0.1-0.5-0.1-1.2-0.1-2
		c0-0.7,0.1-1.3,0.2-1.9c0.1-0.6,0.3-1.1,0.6-1.6c0.3-0.5,0.7-0.8,1.2-1.1c0.5-0.3,1.1-0.4,1.9-0.4c1.4,0,2.5,0.5,3.1,1.4
		c0.6,0.9,0.9,2.1,0.9,3.4v1.3h5.7v-2.8c0-1.1-0.2-2.2-0.7-3.2c-0.4-1.1-1.1-2-1.9-2.9c-0.8-0.8-1.8-1.5-3-2.1
		c-1.2-0.5-2.4-0.8-3.9-0.8c-1.6,0-3,0.3-4.3,0.9c-1.2,0.6-2.2,1.3-3,2.3c-0.8,1-1.4,2.1-1.8,3.4c-0.4,1.3-0.6,2.7-0.6,4.2
		c0,2.5,0.4,4.5,1.2,6.2c0.8,1.6,2.5,3,4.9,4l4,1.7c0.7,0.3,1.3,0.6,1.7,0.8c0.4,0.3,0.8,0.6,1,1c0.2,0.4,0.4,0.9,0.5,1.6
		c0.1,0.7,0.1,1.5,0.1,2.5c0,0.9,0,1.7-0.1,2.4c-0.1,0.7-0.2,1.4-0.5,1.9c-0.3,0.5-0.7,0.9-1.2,1.2c-0.5,0.3-1.3,0.4-2.2,0.4
		c-1.4,0-2.5-0.4-3.1-1.2c-0.6-0.8-0.9-1.8-0.9-2.8v-1.8h-5.6v2.1c0,1.3,0.2,2.6,0.7,3.7c0.5,1.1,1.2,2.1,2,3c0.8,0.8,1.9,1.5,3,2
		c1.2,0.5,2.5,0.7,3.8,0.7c1.8,0,3.3-0.3,4.6-0.9c1.3-0.6,2.3-1.4,3-2.4C29.1,249.1,29.7,247.9,30,246.4"/>
	<path class="st0" d="M52.2,247.8c0.5-1.1,0.7-2.3,0.7-3.6v-30.6h-5.6v30c0,1.4-0.3,2.4-1,3.1c-0.7,0.7-1.5,1-2.5,1
		c-1,0-1.8-0.3-2.5-1c-0.7-0.7-1-1.7-1-3.1v-30h-5.6v30.6c0,1.3,0.2,2.5,0.7,3.6c0.5,1.1,1.1,2.1,2,2.9c0.8,0.8,1.8,1.5,2.9,2
		c1.1,0.5,2.3,0.7,3.5,0.7c1.3,0,2.4-0.2,3.5-0.7c1.1-0.5,2.1-1.1,2.9-2C51.1,249.9,51.7,248.9,52.2,247.8"/>
	<path class="st0" d="M71.4,227.7c-0.1,0.8-0.3,1.4-0.6,1.9c-0.3,0.5-0.8,0.9-1.4,1.2c-0.6,0.3-1.4,0.4-2.4,0.4h-3.2v-12.3h2.9
		c1,0,1.9,0.1,2.5,0.4c0.6,0.3,1.1,0.7,1.5,1.2c0.4,0.5,0.6,1.2,0.7,1.9c0.1,0.8,0.2,1.6,0.2,2.6C71.6,226.1,71.5,227,71.4,227.7
		 M72.4,235c1.8-1,3.1-2.3,3.8-4c0.7-1.6,1.1-3.6,1.1-5.9c0-7.7-3.3-11.6-10-11.6h-9.1v39.4h5.6v-16.8h3.4l5.3,16.8h6L72.4,235z"/>
	<polygon class="st0" points="98.6,218.9 98.6,213.6 81.7,213.6 81.7,253.1 87.4,253.1 87.4,236.2 97.1,236.2 97.1,230.9 
		87.4,230.9 87.4,218.9 	"/>
	<path class="st0" d="M115.4,227.7c-0.1,0.8-0.3,1.4-0.6,1.9c-0.3,0.5-0.8,0.9-1.4,1.2c-0.6,0.3-1.4,0.4-2.4,0.4h-3.2v-12.3h2.9
		c1,0,1.9,0.1,2.5,0.4c0.6,0.3,1.1,0.7,1.5,1.2c0.4,0.5,0.6,1.2,0.7,1.9c0.1,0.8,0.2,1.6,0.2,2.6C115.6,226.1,115.5,227,115.4,227.7
		 M120.2,231.1c0.7-1.6,1.1-3.6,1.1-5.9c0-7.7-3.3-11.6-10-11.6h-9.1v39.4h5.6v-16.8h3.4l5.3,16.8h6l-6.1-18
		C118.2,234.1,119.4,232.7,120.2,231.1"/>
	<rect x="125.9" y="213.6" class="st0" width="5.7" height="39.4"/>
	<path class="st0" d="M149.6,242.8c0,1.7-0.3,2.9-1,3.7c-0.7,0.8-1.8,1.2-3.4,1.2h-2.6v-28.8h2.6c1.7,0,2.8,0.4,3.4,1.3
		c0.6,0.9,0.9,2.1,0.9,3.6V242.8z M145.3,213.6H137v39.4h7.9c3.4,0,5.9-0.9,7.7-2.6c1.8-1.8,2.7-4.5,2.7-8.2v-18.4
		c0-3.2-0.9-5.7-2.5-7.5C151,214.5,148.5,213.6,145.3,213.6"/>
	<polygon class="st0" points="159.8,253.1 176.7,253.1 176.7,247.4 165.5,247.4 165.5,235.8 175.2,235.8 175.2,230.5 165.5,230.5 
		165.5,218.9 176.7,218.9 176.7,213.6 159.8,213.6 	"/>
	<path class="st0" d="M186.6,218.9h2.9c1,0,1.9,0.1,2.5,0.4c0.6,0.3,1.1,0.7,1.5,1.2c0.4,0.5,0.6,1.2,0.7,1.9
		c0.1,0.8,0.2,1.6,0.2,2.6c0,1-0.1,1.9-0.2,2.6c-0.1,0.8-0.3,1.4-0.6,1.9c-0.3,0.5-0.8,0.9-1.4,1.2c-0.6,0.3-1.4,0.4-2.4,0.4h-3.2
		V218.9z M186.6,236.2h3.4l5.3,16.8h6l-6.1-18c1.8-1,3.1-2.3,3.8-4c0.7-1.6,1.1-3.6,1.1-5.9c0-7.7-3.3-11.6-10-11.6h-9.1v39.4h5.7
		V236.2z"/>
	<polygon class="st0" points="130.9,264.3 139.5,264.3 139.5,266.2 133,266.2 133,270.1 138.6,270.1 138.6,271.9 133,271.9 
		133,275.8 139.5,275.8 139.5,277.7 130.9,277.7 	"/>
	<path class="st0" d="M142.2,264.3h2v8.7c0,0.9,0.3,1.6,0.8,2.1c0.5,0.5,1.2,0.8,1.9,0.8c0.8,0,1.4-0.3,2-0.8
		c0.5-0.5,0.8-1.2,0.8-2.1v-8.7h2v8.9c0,1.4-0.5,2.5-1.4,3.4c-0.9,0.9-2,1.3-3.4,1.3c-1.3,0-2.5-0.4-3.4-1.3c-0.9-0.8-1.4-2-1.4-3.4
		V264.3z"/>
	<path class="st0" d="M157.4,270.2h3.1c0.8,0,1.3-0.2,1.7-0.7c0.4-0.4,0.6-0.9,0.6-1.5c0-0.7-0.2-1.2-0.7-1.5
		c-0.3-0.3-0.8-0.4-1.5-0.4h-3.2V270.2z M155.3,264.3h5.3c1.1,0,2,0.3,2.7,0.9c0.9,0.7,1.3,1.6,1.3,2.9c0,1.8-0.9,3.1-2.6,3.7l3.1,6
		h-2.4L160,272h-2.6v5.8h-2V264.3z"/>
	<path class="st0" d="M169.4,271c0,1.3,0,2.2,0.1,2.7c0.1,0.5,0.3,0.8,0.5,1.1c0.2,0.3,0.5,0.5,0.8,0.7c0.3,0.2,0.8,0.3,1.2,0.3
		c0.5,0,0.9-0.1,1.3-0.3c0.3-0.2,0.6-0.4,0.8-0.7c0.3-0.3,0.4-0.7,0.5-1.1c0.1-0.5,0.1-1.4,0.1-2.7s0-2.2-0.1-2.7
		c-0.1-0.5-0.3-0.8-0.5-1.1c-0.2-0.3-0.5-0.5-0.8-0.7c-0.4-0.2-0.8-0.3-1.3-0.3c-0.5,0-0.9,0.1-1.2,0.3c-0.4,0.2-0.6,0.4-0.8,0.7
		c-0.3,0.3-0.4,0.7-0.5,1.1C169.5,268.8,169.4,269.7,169.4,271 M167.4,271c0-1.6,0-2.6,0.1-3.1c0.1-0.5,0.2-1,0.5-1.3
		c0.3-0.6,0.8-1.2,1.6-1.7c0.7-0.5,1.6-0.7,2.6-0.8c1.1,0,2,0.3,2.7,0.8c0.7,0.5,1.2,1,1.5,1.7c0.2,0.3,0.4,0.8,0.5,1.3
		c0.1,0.5,0.1,1.6,0.1,3.1c0,1.5,0,2.6-0.1,3.1c-0.1,0.5-0.2,1-0.5,1.3c-0.3,0.6-0.8,1.2-1.5,1.6c-0.7,0.5-1.6,0.8-2.7,0.8
		c-1.1,0-1.9-0.3-2.6-0.8c-0.7-0.5-1.2-1-1.6-1.6c-0.1-0.2-0.2-0.4-0.3-0.6c-0.1-0.2-0.1-0.4-0.2-0.7
		C167.4,273.6,167.4,272.6,167.4,271"/>
	<path class="st0" d="M182.4,270.6h3c0.8,0,1.3-0.2,1.7-0.7c0.4-0.4,0.5-0.9,0.5-1.5c0-0.4-0.1-0.8-0.2-1.1
		c-0.2-0.3-0.4-0.5-0.6-0.7c-0.4-0.3-0.9-0.4-1.5-0.4h-2.9V270.6z M180.4,264.3h4.9c0.5,0,1,0,1.5,0.1c0.5,0.1,1,0.4,1.5,0.8
		c0.4,0.3,0.8,0.7,1,1.3c0.3,0.5,0.4,1.2,0.4,1.9c0,1-0.4,1.9-1.1,2.7c-0.7,0.9-1.8,1.3-3.2,1.3h-3.1v5.3h-2V264.3z"/>
	<polygon class="st0" points="192.5,264.3 201.1,264.3 201.1,266.2 194.6,266.2 194.6,270.1 200.2,270.1 200.2,271.9 194.6,271.9 
		194.6,275.8 201.1,275.8 201.1,277.7 192.5,277.7 	"/>
</g>
</svg>
